<svg version="1.1" viewBox="0.0 0.0 140.0 140.0" fill="none" stroke="none" stroke-linecap="square" stroke-miterlimit="10" xmlns:xlink="http://www.w3.org/1999/xlink" xmlns="http://www.w3.org/2000/svg"><clipPath id="g128b1aad140_0_49.0"><path d="m0 0l140.0 0l0 140.0l-140.0 0l0 -140.0z" clip-rule="nonzero"/></clipPath><g clip-path="url(#g128b1aad140_0_49.0)"><path fill="#000000" fill-opacity="0.0" d="m0 0l140.0 0l0 140.0l-140.0 0z" fill-rule="evenodd"/><path fill="#ffffff" d="m28.000126 42.71275l0 0c-0.077560425 -21.027004 16.811329 -38.921307 39.665607 -42.026947c22.854279 -3.1056385 44.75151 9.518071 51.4283 29.648314c6.676796 20.13024 -3.8892212 41.669678 -24.81556 50.587975l-10.792984 -20.970032c10.654785 -3.6712456 16.337502 -13.2325325 13.287659 -22.356754c-3.0498505 -9.124224 -13.888664 -14.988432 -25.343956 -13.712034c-11.455284 1.2763977 -19.982883 9.298494 -19.939728 18.757734z" fill-rule="evenodd"/><path fill="#ffffff" d="m57.22713 98.0403l0 0c1.2567139 -15.892967 11.424969 -30.492348 26.614834 -38.213047l10.763489 20.921337c-7.223152 3.7510452 -12.345009 10.342842 -13.566795 17.460411z" fill-rule="evenodd"/><path fill="#ffffff" d="m54.446384 109.543304l30.425198 0l0 30.456696l-30.425198 0z" fill-rule="evenodd"/></g></svg>