<svg version="1.1" viewBox="0.0 0.0 140.0 140.0" fill="none" stroke="none" stroke-linecap="square" stroke-miterlimit="10" xmlns:xlink="http://www.w3.org/1999/xlink" xmlns="http://www.w3.org/2000/svg"><clipPath id="g11c41063eb7_0_55.0"><path d="m0 0l140.0 0l0 140.0l-140.0 0l0 -140.0z" clip-rule="nonzero"/></clipPath><g clip-path="url(#g11c41063eb7_0_55.0)"><path fill="#000000" fill-opacity="0.0" d="m0 0l140.0 0l0 140.0l-140.0 0z" fill-rule="evenodd"/><path fill="#ffffff" d="m69.95112 0.7804015l-63.939186 63.939186l0 16.61573l8.307865 8.307861l72.247055 -72.24705z" fill-rule="evenodd"/><path fill="#ffffff" d="m70.04888 0.7804015l63.939186 63.939186l0 16.61573l-8.307861 8.307861l-72.247055 -72.24705z" fill-rule="evenodd"/><path fill="#ffffff" d="m5.986887 139.7769l0 -63.06761l12.013565 -12.013565l12.013565 0l0 75.08118z" fill-rule="evenodd"/><path fill="#ffffff" d="m10.4321375 116.26983l110.68922 0l11.753967 11.753975l0 11.753967l-122.443184 0z" fill-rule="evenodd"/><path fill="#ffffff" d="m54.446384 86.43044l30.425198 0l0 30.456696l-30.425198 0z" fill-rule="evenodd"/><path fill="#ffffff" d="m134.00264 139.7769l0 -63.07086l-12.015755 -12.015747l-12.015747 0l0 75.08661z" fill-rule="evenodd"/></g></svg>