<?xml version="1.0" encoding="UTF-8"?>
<svg width="1200pt" height="1200pt" version="1.1" viewBox="0 0 1200 1200" xmlns="http://www.w3.org/2000/svg">
 <g fill="#fff">
  <path d="m600 109.09c-130.2 0-255.06 51.723-347.12 143.79s-143.79 216.93-143.79 347.12 51.723 255.06 143.79 347.12 216.93 143.79 347.12 143.79 255.06-51.723 347.12-143.79 143.79-216.93 143.79-347.12-51.723-255.06-143.79-347.12-216.93-143.79-347.12-143.79zm0 872.73c-101.27 0-198.38-40.227-269.98-111.83-71.605-71.602-111.83-168.72-111.83-269.98s40.227-198.38 111.83-269.98c71.602-71.605 168.72-111.83 269.98-111.83s198.38 40.227 269.98 111.83c71.605 71.602 111.83 168.72 111.83 269.98 0 67.023-17.641 132.87-51.152 190.91-33.512 58.043-81.711 106.24-139.75 139.75-58.043 33.512-123.89 51.152-190.91 51.152z"/>
  <path d="m654.55 381.82c0 30.125-24.422 54.547-54.547 54.547s-54.547-24.422-54.547-54.547c0-30.121 24.422-54.543 54.547-54.543s54.547 24.422 54.547 54.543"/>
  <path d="m600 490.91c-14.465 0-28.34 5.7461-38.57 15.977-10.227 10.227-15.977 24.102-15.977 38.566v272.73c0 19.484 10.398 37.492 27.273 47.234 16.879 9.7461 37.668 9.7461 54.547 0 16.875-9.7422 27.273-27.75 27.273-47.234v-272.73c0-14.465-5.75-28.34-15.977-38.566-10.23-10.23-24.105-15.977-38.57-15.977z"/>
 </g>
</svg>
