<svg version="1.1" viewBox="0.0 0.0 140.0 140.0" fill="none" stroke="none" stroke-linecap="square" stroke-miterlimit="10" xmlns:xlink="http://www.w3.org/1999/xlink" xmlns="http://www.w3.org/2000/svg"><clipPath id="g128b1aad140_0_57.0"><path d="m0 0l140.0 0l0 140.0l-140.0 0l0 -140.0z" clip-rule="nonzero"/></clipPath><g clip-path="url(#g128b1aad140_0_57.0)"><path fill="#000000" fill-opacity="0.0" d="m0 0l140.0 0l0 140.0l-140.0 0z" fill-rule="evenodd"/><path fill="#ffffff" d="m125.675995 48.744957l-45.255898 0l45.255898 -45.255894z" fill-rule="evenodd"/><path fill="#000000" fill-opacity="0.0" d="m124.99135 71.28258c-0.46181488 26.725441 -19.96051 49.30091 -46.334457 53.645744c-26.373943 4.3448257 -52.08387 -10.7829895 -61.094093 -35.948013c-9.010225 -25.165024 1.2549152 -53.17356 24.392893 -66.55626c23.137978 -13.382693 52.53456 -8.313961 69.85465 12.04475l-42.148537 35.85768z" fill-rule="evenodd"/><path fill="#000000" fill-opacity="0.0" d="m124.99135 71.28258c-0.46181488 26.725441 -19.96051 49.30091 -46.334457 53.645744c-26.373943 4.3448257 -52.08387 -10.7829895 -61.094093 -35.948013c-9.010225 -25.165024 1.2549152 -53.17356 24.392893 -66.55626c23.137978 -13.382693 52.53456 -8.313961 69.85465 12.04475" fill-rule="evenodd"/><path stroke="#ffffff" stroke-width="24.0" stroke-linejoin="round" stroke-linecap="butt" d="m124.99135 71.28258c-0.46181488 26.725441 -19.96051 49.30091 -46.334457 53.645744c-26.373943 4.3448257 -52.08387 -10.7829895 -61.094093 -35.948013c-9.010225 -25.165024 1.2549152 -53.17356 24.392893 -66.55626c23.137978 -13.382693 52.53456 -8.313961 69.85465 12.04475" fill-rule="evenodd"/></g></svg>