<svg version="1.1" viewBox="0.0 0.0 512.0 512.0" fill="none" stroke="none" stroke-linecap="square" stroke-miterlimit="10" xmlns:xlink="http://www.w3.org/1999/xlink" xmlns="http://www.w3.org/2000/svg"><clipPath id="g123df86bf60_0_0.0"><path d="m0 0l512.0 0l0 512.0l-512.0 0l0 -512.0z" clip-rule="nonzero"/></clipPath><g clip-path="url(#g123df86bf60_0_0.0)"><path fill="#000000" fill-opacity="0.0" d="m0 0l512.0 0l0 512.0l-512.0 0z" fill-rule="evenodd"/><path fill="#a94b50" d="m28.841995 210.56693l90.86614 0l0 90.86615l-90.86614 0z" fill-rule="evenodd"/><path stroke="#ffffff" stroke-width="2.0" stroke-linejoin="round" stroke-linecap="butt" d="m28.841995 210.56693l90.86614 0l0 90.86615l-90.86614 0z" fill-rule="evenodd"/><path fill="#b6ad1a" d="m392.29187 210.56693l90.86615 0l0 90.86615l-90.86615 0z" fill-rule="evenodd"/><path stroke="#ffffff" stroke-width="2.0" stroke-linejoin="round" stroke-linecap="butt" d="m392.29187 210.56693l90.86615 0l0 90.86615l-90.86615 0z" fill-rule="evenodd"/><path fill="#a94b50" d="m301.42938 210.56693l90.86615 0l0 90.86615l-90.86615 0z" fill-rule="evenodd"/><path stroke="#ffffff" stroke-width="2.0" stroke-linejoin="round" stroke-linecap="butt" d="m301.42938 210.56693l90.86615 0l0 90.86615l-90.86615 0z" fill-rule="evenodd"/><path fill="#b6ad1a" d="m210.56693 210.56693l90.86615 0l0 90.86615l-90.86615 0z" fill-rule="evenodd"/><path stroke="#ffffff" stroke-width="2.0" stroke-linejoin="round" stroke-linecap="butt" d="m210.56693 210.56693l90.86615 0l0 90.86615l-90.86615 0z" fill-rule="evenodd"/><path fill="#27906d" d="m119.70446 210.56693l90.86614 0l0 90.86615l-90.86614 0z" fill-rule="evenodd"/><path stroke="#ffffff" stroke-width="2.0" stroke-linejoin="round" stroke-linecap="butt" d="m119.70446 210.56693l90.86614 0l0 90.86615l-90.86614 0z" fill-rule="evenodd"/></g></svg>