<?xml version="1.0" encoding="UTF-8"?>
<svg width="1200pt" height="1200pt" version="1.1" viewBox="0 0 1200 1200" xmlns="http://www.w3.org/2000/svg">
 <g fill="#fff">
  <path d="m256.05 418.95c69.141 0 129.14 38.672 159.73 95.625 13.594 25.43 21.328 54.492 21.328 85.43 0 30.82-7.7344 60-21.328 85.43-30.469 56.953-90.586 95.625-159.73 95.625-99.961 0-181.05-81.094-181.05-181.05s81.094-181.05 181.05-181.05z"/>
  <path d="m256.05 442.38c4.8047 0 9.4922 0.23438 14.297 0.58594l7.0312 0.70312c0.58594 0.11719 3.5156 0.58594 0.35156 0-3.6328-0.58594 1.2891 0.23438 2.1094 0.35156 9.0234 1.5234 18.047 3.75 26.836 6.5625 4.1016 1.4062 8.5547 3.8672 12.773 4.8047-0.70312-0.11719-4.8047-2.1094-0.9375-0.35156 1.0547 0.46875 2.1094 0.9375 3.0469 1.4062 1.9922 0.9375 4.1016 1.9922 6.0938 3.0469 8.2031 4.2188 16.055 9.1406 23.555 14.648 0.35156 0.35156 1.5234 1.4062 1.9922 1.5234-1.7578-0.11719-3.0469-2.4609-0.82031-0.58594 1.7578 1.4062 3.5156 2.8125 5.1562 4.2188 3.6328 3.0469 7.0312 6.3281 10.43 9.7266 2.9297 2.9297 5.7422 5.9766 8.5547 9.1406 1.4062 1.6406 2.8125 3.3984 4.3359 5.1562 0.82031 0.9375 2.9297 2.9297-0.58594-0.82031 0.9375 1.0547 1.6406 2.2266 2.4609 3.3984 5.3906 7.3828 10.078 15.117 14.297 23.203 1.1719 2.3438 2.3438 4.6875 3.5156 7.1484 0.46875 0.9375 0.82031 1.7578 1.1719 2.6953-1.9922-4.1016-0.46875-1.0547 0-0.11719 2.1094 5.2734 3.9844 10.547 5.625 15.938 1.4062 4.8047 2.6953 9.7266 3.6328 14.648 0.58594 2.6953 1.0547 5.2734 1.5234 7.9688 0.82031 4.5703 0.11719 0.70313 0-0.11719 0.23438 1.7578 0.35156 3.3984 0.58594 5.1562 1.0547 11.016 1.1719 22.266 0.23437 33.281-0.11719 1.4062-0.23437 2.6953-0.35156 4.1016-0.11719 0.70312-0.70312 5.0391-0.23438 1.9922s-0.23438 1.1719-0.35156 1.9922c-0.23437 1.2891-0.46875 2.6953-0.70312 3.9844-1.0547 5.2734-2.2266 10.547-3.75 15.703-1.4062 5.1562-3.1641 10.195-5.0391 15.117-0.58594 1.5234-2.9297 6.7969-1.0547 2.6953-1.4062 3.0469-2.6953 5.9766-4.2188 8.9062-4.1016 8.2031-8.9062 16.055-14.297 23.438-0.70312 0.9375-4.1016 5.3906-2.2266 3.0469 2.1094-2.5781-2.3438 2.9297-2.9297 3.5156-3.0469 3.6328-6.2109 7.1484-9.6094 10.547-2.9297 2.9297-5.9766 5.8594-9.1406 8.6719-1.6406 1.5234-3.3984 2.9297-5.0391 4.3359-0.70312 0.58594-1.2891 1.0547-1.9922 1.5234-4.4531 3.6328 4.1016-2.9297-0.58594 0.46875-7.2656 5.2734-14.766 10.078-22.734 14.297-3.75 1.9922-7.6172 3.75-11.367 5.5078-2.9297 1.4062 3.9844-1.5234 0.9375-0.35156-1.0547 0.46875-2.1094 0.82031-3.1641 1.2891-2.3438 0.9375-4.8047 1.7578-7.1484 2.5781-8.6719 2.9297-17.578 5.2734-26.719 6.9141-1.6406 0.23438-8.5547 1.7578-2.4609 0.46875-2.2266 0.46875-4.6875 0.58594-7.0312 0.70313-4.6875 0.46875-9.4922 0.70312-14.297 0.70312-4.4531 0-8.7891-0.11719-13.242-0.35156-1.875-0.11719-3.75-0.23438-5.625-0.46875-1.0547-0.11719-2.1094-0.23438-3.1641-0.35156-3.5156-0.35156-1.7578-0.46875 0.70312 0.11719-8.2031-1.9922-16.641-2.9297-24.727-5.3906-3.9844-1.1719-7.9688-2.4609-11.836-3.8672-0.9375-0.35156-5.3906-1.4062-5.7422-2.2266 0-0.11719 4.4531 1.9922 1.9922 0.82031-1.1719-0.58594-2.3438-1.0547-3.5156-1.5234-7.5-3.3984-14.648-7.3828-21.68-11.719-3.3984-2.2266-6.7969-4.4531-10.078-6.9141-0.58594-0.35156-2.2266-1.4062-2.4609-1.875 0.11719 0.23438 4.4531 3.5156 1.1719 0.82031-1.5234-1.2891-3.1641-2.5781-4.6875-3.8672-6.3281-5.5078-12.305-11.367-17.93-17.695-1.1719-1.2891-2.3438-2.6953-3.5156-4.1016-0.70312-0.82031-1.2891-1.6406-1.9922-2.3438-2.6953-3.2812 0.58594 1.0547 0.82031 1.1719-1.1719-0.58594-2.9297-3.8672-3.6328-4.9219-1.2891-1.875-2.5781-3.75-3.8672-5.7422-4.4531-6.9141-8.5547-14.062-12.07-21.445-0.82031-1.6406-1.5234-3.2812-2.2266-4.9219-1.875-3.9844 0.46875 1.2891 0.58594 1.2891-0.23438-0.11719-0.9375-2.4609-1.1719-2.9297-1.6406-4.1016-3.0469-8.3203-4.3359-12.539-2.4609-8.0859-4.3359-16.289-5.625-24.609-0.9375-5.9766 0.46875 4.3359-0.23438-1.7578-0.23437-1.875-0.35156-3.75-0.58594-5.625-0.35156-4.5703-0.58594-9.2578-0.58594-13.828 0-4.1016 0.11719-8.2031 0.35156-12.305 0.11719-2.1094 0.35156-4.3359 0.46875-6.4453 0.11719-1.0547 0.23438-2.1094 0.35156-3.1641 0.58594-5.3906-0.58594 3.75-0.11719 0.70312 1.4062-8.5547 3.1641-17.109 5.625-25.43 1.1719-3.75 2.3438-7.5 3.75-11.133 0.23438-0.70312 1.1719-4.6875 1.9922-5.0391-0.9375 0.46875-1.875 4.3359-0.58594 1.2891 0.58594-1.4062 1.2891-2.8125 1.875-4.2188 3.5156-7.3828 7.5-14.648 11.953-21.562 2.1094-3.1641 4.3359-6.3281 6.5625-9.4922 3.3984-4.6875-2.6953 3.1641 1.0547-1.2891 1.5234-1.7578 2.9297-3.5156 4.4531-5.2734 5.3906-6.0938 11.133-11.953 17.227-17.227 1.5234-1.2891 3.0469-2.6953 4.6875-3.9844 0.58594-0.46875 1.1719-0.9375 1.7578-1.4062 2.3438-2.1094-3.6328 2.6953-1.1719 0.82031 3.5156-2.5781 7.0312-5.1562 10.664-7.5 6.9141-4.4531 14.062-8.4375 21.562-11.953 1.4062-0.70312 4.1016-2.4609 5.625-2.5781-0.35156 0-5.2734 2.1094-1.2891 0.58594 0.9375-0.35156 1.875-0.70312 2.9297-1.1719 3.8672-1.5234 7.8516-2.8125 11.836-3.9844 8.0859-2.4609 16.289-4.1016 24.727-5.5078 4.4531-0.70312-1.2891 0-1.5234 0.23438 0.35156-0.23438 3.0469-0.35156 3.1641-0.35156 2.1094-0.23438 4.3359-0.46875 6.4453-0.58594 4.4531-0.58594 8.7891-0.70313 13.125-0.70313 12.305 0 24.023-10.781 23.438-23.438-0.58594-12.656-10.312-23.438-23.438-23.438-78.281 0.35156-153.28 46.641-185.51 118.59-17.227 38.438-22.5 79.57-15.82 121.17 6.0938 38.203 24.609 74.062 50.391 102.66 54.141 59.883 143.55 82.5 219.61 54.609 40.664-14.883 75-41.367 99.844-76.758 27.422-39.023 40.312-89.18 34.805-136.52-5.3906-46.875-25.43-90.703-58.945-124.1-29.531-29.414-68.672-50.156-109.92-56.602-11.484-1.7578-22.852-2.9297-34.453-3.0469-12.305-0.11719-24.023 10.781-23.438 23.438 0.58594 12.773 10.312 23.32 23.438 23.438z"/>
  <path d="m943.95 788.67h0.58594c99.727 0 180.47 80.977 180.47 180.7 0 99.961-81.094 180.94-181.05 180.94-100.08 0-181.05-81.094-181.05-181.17 0-31.055 7.8516-60 21.68-85.547 30.469-56.719 90.469-94.922 159.38-94.922z"/>
  <path d="m943.95 811.64c3.5156 0 6.9141 0.11719 10.43 0.23438 2.1094 0.11719 4.3359 0.23438 6.4453 0.46875 1.0547 0.11719 2.1094 0.23438 3.1641 0.35156 0.82031 0.11719 1.6406 0.23438 2.4609 0.23438 1.7578 0.23437 1.0547 0.11719-2.2266-0.35156 1.1719-0.58594 5.0391 0.82031 6.3281 1.0547 2.1094 0.35156 4.2188 0.82031 6.2109 1.2891 4.3359 0.9375 8.6719 2.1094 13.008 3.3984 3.9844 1.1719 7.9688 2.5781 11.836 3.9844 0.70313 0.23437 7.1484 2.9297 3.75 1.4062-3.1641-1.4062 0 0 0.82031 0.35156 1.1719 0.58594 2.3438 1.0547 3.5156 1.6406 7.8516 3.75 15.586 8.0859 22.852 12.891 1.7578 1.1719 3.3984 2.3438 5.0391 3.5156 0.82031 0.58594 1.6406 1.1719 2.4609 1.7578 2.1094 1.5234 1.5234-0.11719-1.0547-0.82031 3.1641 0.9375 7.5 6.2109 9.9609 8.4375 6.2109 5.625 12.07 11.719 17.461 18.281 0.70312 0.82031 1.2891 1.6406 1.9922 2.3438 1.2891 1.5234 2.3438 1.2891-0.82031-1.1719 1.4062 1.0547 2.5781 3.5156 3.6328 4.9219 2.5781 3.5156 4.9219 7.1484 7.1484 10.898 2.1094 3.5156 4.2188 7.1484 6.0938 10.781 1.6406 3.1641 5.3906 8.4375 5.625 11.953-0.23438-3.1641-1.4062-3.5156-0.58594-1.2891 0.35156 0.9375 0.82031 1.9922 1.1719 2.9297 0.70313 1.9922 1.4062 3.8672 2.1094 5.8594 1.5234 4.4531 2.8125 9.0234 3.9844 13.594 1.0547 4.1016 1.9922 8.2031 2.6953 12.422 0.35156 2.1094 0.46875 4.3359 1.0547 6.3281-0.11719-0.58594-0.58594-5.625-0.23437-1.4062 0.11719 1.2891 0.35156 2.6953 0.46875 3.9844 0.82031 9.0234 1.0547 18.047 0.58594 26.953-0.11719 2.1094-0.23438 4.3359-0.46875 6.4453-0.11719 1.4062 0.11719 5.2734-0.70312 6.4453 1.1719-1.4062 0.70312-4.5703 0.23438-1.5234-0.11719 1.0547-0.35156 2.1094-0.46875 3.1641-0.46875 2.5781-0.9375 5.1562-1.5234 7.8516-1.875 8.4375-4.2188 16.758-7.2656 24.844-0.35156 0.9375-2.2266 7.2656-1.4062 3.75 0.70313-3.2812 0.11719-0.23438-0.35156 0.70312s-0.82031 1.875-1.2891 2.8125c-1.875 3.9844-3.8672 7.8516-5.9766 11.719-1.9922 3.6328-4.1016 7.1484-6.3281 10.547-1.0547 1.7578-2.2266 3.3984-3.3984 5.0391-1.0547 1.5234-2.9297 5.3906-4.4531 6.2109 0.23437-0.11719 3.5156-4.4531 0.82031-1.1719-0.70312 0.82031-1.2891 1.6406-1.9922 2.3438-1.1719 1.4062-2.3438 2.6953-3.5156 4.1016-2.8125 3.2812-5.8594 6.4453-8.9062 9.375-2.9297 2.8125-5.8594 5.625-9.0234 8.3203-1.5234 1.2891-3.1641 2.5781-4.6875 3.8672-3.2812 2.6953 1.0547-0.58594 1.1719-0.82031-0.35156 0.70312-3.0469 2.2266-3.6328 2.6953-6.7969 4.9219-14.062 9.375-21.445 13.359-3.6328 1.875-7.3828 3.6328-11.133 5.3906-5.3906 2.4609 3.9844-1.4062-1.5234 0.58594-2.2266 0.82031-4.3359 1.6406-6.5625 2.4609-8.4375 2.9297-17.109 5.2734-25.781 6.9141-2.1094 0.35156-4.2188 0.70312-6.3281 1.0547-3.0469 0.46875 0 0.9375 1.5234-0.23437-0.35156 0.23437-2.9297 0.35156-3.1641 0.35156-4.5703 0.46875-9.1406 0.82031-13.711 0.9375-9.0234 0.23438-17.93-0.23438-26.836-1.1719-4.2188-0.46875 0.9375 0.11719 1.4062 0.23438-1.0547-0.23438-2.1094-0.35156-3.1641-0.46875-2.1094-0.35156-4.2188-0.70312-6.2109-1.1719-4.6875-0.9375-9.2578-1.9922-13.828-3.2812-3.9844-1.1719-7.9688-2.3438-11.953-3.75-1.9922-0.70312-3.8672-1.5234-5.8594-2.2266-2.2266-0.82031-1.875 0.35156 1.2891 0.58594-1.0547-0.11719-2.5781-1.1719-3.5156-1.5234-7.7344-3.5156-15.234-7.5-22.383-12.07-3.3984-2.2266-6.7969-4.4531-10.078-6.9141-0.23438-0.23438-2.2266-1.4062-2.4609-1.875 0.11719 0.23437 4.4531 3.5156 1.1719 0.82031-1.7578-1.4062-3.5156-2.9297-5.2734-4.4531-6.3281-5.5078-12.305-11.484-17.812-17.812-1.2891-1.5234-2.6953-3.0469-3.9844-4.6875-0.11719-0.11719-1.875-1.9922-1.875-2.3438 0.11719 1.4062 2.6953 3.6328 0.82031 1.0547-2.6953-3.75-5.3906-7.5-7.8516-11.367-4.5703-7.1484-8.5547-14.648-12.07-22.383-0.46875-0.9375-0.82031-1.875-1.2891-2.8125-1.2891-2.8125 1.6406 4.3359 0.58594 1.2891-0.70313-1.9922-1.5234-3.8672-2.2266-5.8594-1.5234-4.2188-2.9297-8.4375-4.1016-12.656-1.1719-4.1016-2.1094-8.0859-3.0469-12.305-0.46875-2.1094-0.82031-4.2188-1.1719-6.2109-0.23437-1.0547-0.35156-2.1094-0.46875-3.1641-0.9375-5.5078 0.58594 5.5078 0-0.11719-0.9375-9.4922-1.4062-18.984-1.0547-28.477 0.11719-2.8125 0.23438-5.5078 0.46875-8.3203 0.11719-1.4062 0.23438-2.8125 0.35156-4.1016 0.11719-0.70313 0.70312-5.0391 0.23437-1.9922s0.23438-1.2891 0.35156-1.9922c0.23438-1.2891 0.46875-2.6953 0.70312-3.9844 0.58594-3.0469 1.1719-5.9766 1.9922-8.9062 1.2891-5.2734 2.8125-10.43 4.5703-15.469 0.82031-2.5781 1.875-5.0391 2.8125-7.5 1.5234-4.2188 0.23438-0.70313-0.11719 0.11719 0.82031-1.875 1.6406-3.6328 2.4609-5.3906 4.1016-8.7891 9.0234-17.227 14.531-25.312 1.2891-1.875 2.5781-3.6328 3.8672-5.3906 3.5156-4.6875-2.2266 2.6953 1.4062-1.875 2.9297-3.6328 6.0938-7.1484 9.375-10.664 3.0469-3.1641 6.2109-6.3281 9.4922-9.2578 1.6406-1.5234 3.2812-2.9297 5.0391-4.3359 0.82031-0.70312 1.7578-1.4062 2.5781-2.1094 3.3984-2.8125-2.4609 1.7578-0.11719 0.11719 7.3828-5.5078 15.117-10.547 23.203-14.883 3.9844-2.1094 7.9688-4.1016 12.07-5.9766 3.8672-1.7578-0.35156 0.23438-0.9375 0.35156 0.9375-0.11719 2.2266-0.9375 3.1641-1.2891 2.5781-1.0547 5.2734-1.9922 7.9688-2.9297 8.9062-3.0469 18.164-5.3906 27.422-6.9141 1.1719-0.23438 2.3438-0.35156 3.3984-0.58594 3.2812-0.58594-4.4531 0.46875-1.0547 0.11719l7.0312-0.70312c4.8047-0.23438 9.8438-0.46875 14.883-0.46875 12.305-0.11719 24.023-10.781 23.438-23.438-0.58594-12.656-10.312-23.555-23.438-23.438-43.828 0.23438-87.539 14.18-122.46 40.898-37.266 28.477-64.805 68.438-76.055 114.26-11.016 45-6.0938 91.523 12.305 133.71 15.703 35.977 43.125 66.562 75.938 87.891 68.438 44.414 162.42 42.539 228.52-5.625 33.633-24.492 58.945-57.422 73.594-96.445 14.414-38.32 16.055-81.562 6.0938-121.17-20.156-79.453-88.945-140.51-170.04-151.41-9.375-1.2891-18.633-2.1094-28.008-2.1094-12.305 0-24.023 10.781-23.438 23.438 0.70312 12.656 10.43 23.438 23.555 23.438z"/>
  <path d="m943.95 49.805c99.961 0 181.05 81.328 181.05 181.29 0 99.844-80.859 181.41-180.47 181.41h-0.58594c-68.906 0-128.91-38.789-159.38-95.508-13.828-25.547-21.68-54.961-21.68-86.016 0-99.961 80.977-181.17 181.05-181.17z"/>
  <path d="m943.95 73.242c4.3359 0 8.7891 0.11719 13.125 0.46875 2.1094 0.11719 4.3359 0.35156 6.4453 0.58594 0.46875 0 2.6953 0 3.1641 0.35156-3.2812-0.46875-4.1016-0.58594-2.2266-0.23438 0.82031 0.11719 1.6406 0.23438 2.3438 0.35156 8.6719 1.4062 17.109 3.3984 25.43 6.0938 3.9844 1.2891 7.9688 2.6953 11.836 4.2188 5.5078 2.1094-3.75-1.7578 1.6406 0.70312 2.1094 0.9375 4.2188 1.9922 6.3281 2.9297 7.6172 3.75 15 8.0859 22.031 12.891 1.6406 1.1719 3.3984 2.3438 5.0391 3.5156 4.6875 3.3984-3.1641-2.6953 1.4062 1.0547 3.3984 2.8125 6.6797 5.625 9.8438 8.5547 6.3281 5.9766 12.305 12.305 17.812 19.102 0.46875 0.70312 1.6406 1.7578 1.875 2.4609-0.11719-0.35156-3.2812-4.4531-0.82031-1.0547 1.1719 1.6406 2.4609 3.2812 3.6328 5.0391 2.4609 3.6328 4.8047 7.2656 7.0312 11.016 2.1094 3.5156 4.1016 7.1484 5.8594 10.898 0.9375 1.875 1.875 3.75 2.6953 5.625 0.46875 0.9375 0.82031 1.875 1.2891 2.8125 1.2891 2.6953-1.875-4.5703-0.23437-0.58594 3.1641 8.0859 5.8594 16.289 7.8516 24.727 0.9375 4.1016 1.875 8.3203 2.5781 12.539 0.23438 1.0547 0.35156 2.1094 0.46875 3.1641 0.58594 3.2812-0.58594-4.6875-0.23438-1.4062 0.23438 2.4609 0.58594 4.8047 0.70312 7.2656 0.70312 9.2578 0.82031 18.633 0.11719 27.891-0.11719 2.1094-0.35156 4.3359-0.58594 6.4453-0.11719 1.0547-0.35156 2.2266-0.35156 3.1641 0-0.58594 0.82031-5.625 0.11719-1.4062-0.70312 4.4531-1.5234 8.9062-2.5781 13.359-1.9922 8.4375-4.4531 16.758-7.6172 24.844-0.11719 0.23438-0.82031 2.6953-1.1719 2.9297 1.4062-0.9375 1.7578-4.1016 0.58594-1.2891-0.82031 1.875-1.7578 3.75-2.5781 5.625-1.9922 4.2188-4.2188 8.3203-6.5625 12.305-2.1094 3.5156-4.2188 7.0312-6.5625 10.43-1.0547 1.5234-1.9922 2.9297-3.0469 4.4531-0.58594 0.82031-1.1719 1.6406-1.7578 2.4609-2.5781 3.5156 0.35156 0.82031 0.35156-0.46875 0 2.2266-6.4453 7.7344-7.9688 9.375-3.0469 3.3984-6.3281 6.6797-9.6094 9.8438-2.9297 2.8125-6.0938 5.5078-9.1406 8.0859-0.82031 0.70312-1.6406 1.2891-2.3438 1.9922-2.2266 1.875 0.23438 0.9375 1.0547-0.82031-0.58594 1.4062-4.3359 3.1641-5.625 4.1016-6.9141 4.8047-14.297 9.2578-21.797 13.125-1.875 0.9375-3.75 1.875-5.625 2.6953-0.9375 0.46875-1.875 0.82031-2.8125 1.2891-3.9844 1.7578 1.1719-0.35156 1.2891-0.58594-0.9375 1.0547-4.4531 1.7578-5.8594 2.2266-2.4609 0.9375-4.9219 1.7578-7.3828 2.5781-8.3203 2.6953-16.758 4.6875-25.312 6.2109-1.0547 0.23438-2.1094 0.35156-3.1641 0.46875-3.2812 0.58594 4.6875-0.58594 1.4062-0.23438-2.1094 0.23438-4.3359 0.46875-6.4453 0.70312-4.5703 0.35156-9.2578 0.58594-13.828 0.70312-3.75 0-7.5 0-11.133-0.23438-2.3438-0.11719-4.6875-0.23438-7.0312-0.46875-1.1719-0.11719-2.3438-0.23438-3.5156-0.35156-0.82031-0.11719-5.7422-0.82031-2.1094-0.23438 3.5156 0.58594-3.8672-0.70312-4.6875-0.82031-2.2266-0.46875-4.5703-0.82031-6.7969-1.4062-4.8047-1.0547-9.4922-2.3438-14.062-3.75-4.3359-1.2891-8.6719-2.8125-12.891-4.4531-1.0547-0.35156-2.1094-0.82031-3.1641-1.2891 4.9219 2.3438 1.9922 0.82031 0.9375 0.35156-2.5781-1.1719-5.0391-2.3438-7.6172-3.6328-8.2031-4.2188-16.172-9.0234-23.672-14.297-0.9375-0.70313-1.7578-1.2891-2.6953-1.9922-2.6953-1.875 3.2812 2.6953 0.82031 0.58594-1.7578-1.4062-3.5156-2.8125-5.1562-4.2188-3.6328-3.0469-7.0312-6.2109-10.43-9.6094-3.1641-3.1641-6.2109-6.3281-9.1406-9.7266-1.4062-1.6406-2.8125-3.3984-4.3359-5.1562-0.82031-0.9375-2.9297-3.1641 0.58594 0.82031-0.9375-1.0547-1.6406-2.2266-2.4609-3.3984-5.5078-7.6172-10.43-15.703-14.766-24.023-1.1719-2.3438-2.3438-4.6875-3.5156-7.1484-0.58594-1.1719-1.0547-2.4609-1.6406-3.6328 1.7578 4.2188 0.46875 0.9375 0.11719 0.11719-2.1094-5.625-4.1016-11.367-5.7422-17.109-1.4062-5.2734-2.6953-10.547-3.6328-15.82-0.23437-1.5234-1.4062-9.0234-0.70312-3.8672-0.35156-3.0469-0.70313-6.2109-0.9375-9.2578-0.70313-9.9609-0.70313-20.039 0.23437-30 0.11719-1.4062-0.11719-5.2734 0.70313-6.4453-1.1719 1.4062-0.70313 4.5703-0.23438 1.5234 0.11719-1.0547 0.35156-2.1094 0.46875-3.1641 0.82031-4.6875 1.7578-9.375 2.9297-13.945 0.9375-3.75 2.1094-7.6172 3.2812-11.367 0.58594-1.9922 1.2891-3.9844 1.9922-5.8594 0.35156-1.1719 1.5234-5.9766 2.4609-6.5625-0.9375 0.58594-1.875 4.3359-0.58594 1.2891 0.46875-0.9375 0.82031-1.875 1.2891-2.8125 0.82031-1.875 1.7578-3.75 2.6953-5.625 2.1094-4.1016 4.3359-8.2031 6.6797-12.188 2.1094-3.5156 4.3359-6.9141 6.6797-10.312 1.1719-1.6406 2.3438-3.2812 3.6328-4.9219 1.875-2.5781-0.82031-0.23437-0.82031 1.0547 0-0.82031 1.875-2.3438 2.3438-2.9297 5.3906-6.4453 11.133-12.656 17.344-18.281 3.0469-2.8125 6.0938-5.3906 9.2578-7.9688 3.2812-2.6953-1.0547 0.58594-1.1719 0.82031 0.23438-0.46875 1.875-1.4062 2.4609-1.875 2.1094-1.5234 4.1016-2.9297 6.2109-4.4531 7.0312-4.6875 14.414-8.9062 22.031-12.656 1.6406-0.82031 3.2812-1.5234 4.9219-2.3438 0.46875-0.23438 2.1094-1.1719 2.8125-1.2891-3.1641 0.23437-3.6328 1.4062-1.2891 0.58594 4.3359-1.6406 8.7891-3.2812 13.242-4.6875 8.3203-2.5781 16.758-4.5703 25.43-5.8594 5.9766-0.9375-4.3359 0.46875 1.7578-0.23438 2.1094-0.23438 4.3359-0.46875 6.4453-0.58594 4.8047-0.35156 9.375-0.46875 14.062-0.46875 12.305 0 24.023-10.781 23.438-23.438-0.58594-12.656-10.312-23.438-23.438-23.438-40.195 0.23437-80.742 11.953-114.02 34.805-34.336 23.555-60.352 56.016-76.055 94.453-16.875 41.25-18.867 88.711-6.6797 131.37 12.891 45.117 41.133 83.672 78.867 110.98 67.852 49.102 165.35 49.688 233.79 1.4062 33.984-24.023 59.414-56.484 74.766-95.156 15.234-38.203 17.461-81.445 7.9688-121.41-18.398-78.164-85.781-141.8-165.59-153.63-11.016-1.6406-21.914-2.8125-33.047-2.8125-12.305 0-24.023 10.781-23.438 23.438 0.58594 12.773 10.312 23.32 23.438 23.438z"/>
  <path d="m433.48 545.04 36.562-19.688c29.297-15.703 58.594-31.406 87.891-47.109 35.625-19.102 71.25-38.203 106.88-57.305 30.703-16.406 61.289-32.93 91.992-49.336 14.883-7.9688 30.117-15.586 44.766-24.023 0.23438-0.11719 0.46875-0.23438 0.58594-0.35156 16.172-8.6719 22.617-32.578 12.656-48.047-10.664-16.523-30.703-21.914-48.047-12.656l-36.562 19.688c-29.297 15.703-58.594 31.406-87.891 47.109-35.625 19.102-71.25 38.203-106.88 57.305-30.703 16.406-61.289 32.93-91.992 49.336-14.883 7.9688-30.117 15.586-44.766 24.023-0.23438 0.11719-0.46875 0.23438-0.58594 0.35156-16.172 8.6719-22.617 32.578-12.656 48.047 10.664 16.523 30.703 21.914 48.047 12.656z"/>
  <path d="m802.27 853.01-36.562-19.688c-29.297-15.703-58.594-31.406-87.891-47.227-35.625-19.102-71.25-38.203-106.88-57.422-30.703-16.406-61.289-32.93-91.992-49.336-14.883-7.9688-29.766-16.289-44.766-24.023-0.23438-0.11719-0.46875-0.23438-0.58594-0.35156-16.172-8.6719-39.023-4.5703-48.047 12.656-8.6719 16.289-4.6875 38.789 12.656 48.047l36.562 19.688c29.297 15.703 58.594 31.406 87.891 47.227 35.625 19.102 71.25 38.203 106.88 57.422 30.703 16.406 61.289 32.93 91.992 49.336 14.883 7.9688 29.766 16.289 44.766 24.023 0.23438 0.11719 0.46875 0.23438 0.58594 0.35156 16.172 8.6719 39.023 4.5703 48.047-12.656 8.5547-16.289 4.5703-38.789-12.656-48.047z"/>
 </g>
</svg>
