<?xml version="1.0" encoding="UTF-8"?>
<svg width="1200pt" height="1200pt" version="1.1" viewBox="0 0 1200 1200" xmlns="http://www.w3.org/2000/svg">
 <g fill="#fff">
  <path d="m150 1050h225c9.9453 0 19.484-3.9492 26.516-10.984 7.0352-7.0312 10.984-16.57 10.984-26.516v-375c0-9.9453-3.9492-19.484-10.984-26.516-7.0312-7.0352-16.57-10.984-26.516-10.984h-225c-9.9453 0-19.484 3.9492-26.516 10.984-7.0352 7.0312-10.984 16.57-10.984 26.516v375c0 9.9453 3.9492 19.484 10.984 26.516 7.0312 7.0352 16.57 10.984 26.516 10.984zm37.5-375h150v300h-150z"/>
  <path d="m487.5 1050h225c9.9453 0 19.484-3.9492 26.516-10.984 7.0352-7.0312 10.984-16.57 10.984-26.516v-600c0-9.9453-3.9492-19.484-10.984-26.516-7.0312-7.0352-16.57-10.984-26.516-10.984h-225c-9.9453 0-19.484 3.9492-26.516 10.984-7.0352 7.0312-10.984 16.57-10.984 26.516v600c0 9.9453 3.9492 19.484 10.984 26.516 7.0312 7.0352 16.57 10.984 26.516 10.984zm37.5-600h150v525h-150z"/>
  <path d="m1050 150h-225c-9.9453 0-19.484 3.9492-26.516 10.984-7.0352 7.0312-10.984 16.57-10.984 26.516v825c0 9.9453 3.9492 19.484 10.984 26.516 7.0312 7.0352 16.57 10.984 26.516 10.984h225c9.9453 0 19.484-3.9492 26.516-10.984 7.0352-7.0312 10.984-16.57 10.984-26.516v-825c0-9.9453-3.9492-19.484-10.984-26.516-7.0312-7.0352-16.57-10.984-26.516-10.984zm-37.5 825h-150v-750h150z"/>
 </g>
</svg>
